# xmcd
#
# Track frame offsets:
#	150
#	25577
#	52832
#	72738
#	95230
#	122113
#	137165
#	166547
#	188728
#	212208
#
# Disc length: 3171 seconds
#
# Revision: 0
# Processed by: cddbd v1.5.1PL0 Copyright (c) Steve Scherf et al.
# Submitted via: EasyCDDAExtractor 8.2.1.1
#
DISCID=8c0c610a
DTITLE=Gerry Rafferty
DYEAR=1900
DGENRE=Blues
TTITLE0=The Ark
TTITLE1=Baker Street
TTITLE2=Right Down The Line
TTITLE3=City To City
TTITLE4=Stealin' Time
TTITLE5=Mattie's Rag
TTITLE6=Whatever's Written In Your Heart
TTITLE7=Home And Dry
TTITLE8=Island
TTITLE9=Waiting For The Day
EXTD=
EXTT0=
EXTT1=
EXTT2=
EXTT3=
EXTT4=
EXTT5=
EXTT6=
EXTT7=
EXTT8=
EXTT9=
PLAYORDER=
